<svg xmlns="http://www.w3.org/2000/svg" width="748" height="712" viewBox="0 0 748 712">
<g>
<path d="M 614.00 397.02 L 614.00 618.00 L 144.00 618.00 L 144.00 397.00 L 177.50 380.26 C195.93,371.05 210.99,363.29 210.98,363.01 C210.97,362.73 209.50,361.83 207.73,361.00 C205.39,359.91 203.58,357.71 201.15,353.00 L 197.80 346.50 L 198.40 334.50 C198.72,327.90 200.32,312.60 201.94,300.50 L 204.89 278.50 L 211.98 260.58 C222.07,235.08 226.00,227.89 234.45,219.48 C238.33,215.62 243.07,211.70 245.00,210.76 C260.88,203.06 284.95,192.99 288.79,192.43 C291.38,192.06 294.92,191.17 296.66,190.47 C299.73,189.21 299.83,188.98 300.44,181.34 C300.78,177.03 301.30,171.14 301.60,168.26 C302.10,163.40 301.92,162.81 299.17,160.26 C297.12,158.37 295.53,155.26 294.09,150.39 C291.69,142.25 292.12,137.62 295.48,135.42 C297.15,134.33 297.99,132.23 298.96,126.74 C301.36,113.22 307.25,104.96 318.45,99.43 C325.39,96.00 326.29,95.80 333.66,96.16 C347.14,96.82 356.91,103.46 363.50,116.43 C366.76,122.86 367.40,125.19 367.80,132.13 C368.16,138.30 368.72,140.72 370.14,142.14 C372.68,144.68 372.50,146.59 368.82,156.01 C366.38,162.22 364.97,164.48 362.82,165.59 C360.57,166.76 360.00,167.74 360.00,170.43 C360.00,172.82 358.99,175.02 356.57,177.92 C353.13,182.04 352.57,184.18 351.76,196.47 C351.51,200.30 351.63,200.46 355.01,201.03 C356.94,201.35 363.20,204.17 368.92,207.31 C374.64,210.45 379.50,212.83 379.73,212.60 C379.95,212.38 378.53,210.91 376.57,209.35 C374.61,207.78 373.00,206.26 373.00,205.98 C373.00,205.69 375.73,203.46 379.07,201.03 C382.40,198.60 387.41,193.75 390.20,190.25 L 395.27 183.87 L 394.65 177.88 C394.21,173.74 393.25,170.89 391.54,168.64 C388.12,164.15 385.30,157.41 384.46,151.69 C383.96,148.26 383.09,146.45 381.43,145.36 C377.01,142.46 372.37,124.00 376.07,124.00 C376.58,124.00 377.02,121.19 377.03,117.75 C377.08,109.05 379.44,96.70 382.01,91.70 C385.35,85.19 393.50,77.50 400.40,74.36 C407.36,71.18 418.80,70.06 425.62,71.90 C432.20,73.67 441.67,80.40 445.03,85.70 C448.76,91.59 449.67,94.84 451.23,107.88 C452.29,116.82 452.78,118.46 454.73,119.74 C456.12,120.65 457.00,122.23 457.00,123.80 C457.00,127.95 452.95,141.33 451.04,143.50 C449.39,145.37 449.37,146.46 450.66,160.50 L 452.03 175.50 L 455.43 178.53 C457.30,180.20 462.58,183.11 467.17,185.00 C484.38,192.08 528.05,212.62 532.31,215.64 C541.05,221.83 549.26,241.11 551.09,259.73 C551.67,265.65 553.92,283.34 556.07,299.04 C560.85,333.73 561.19,345.93 557.62,353.50 C554.64,359.83 551.44,362.75 547.00,363.21 L 543.50 363.57 L 546.50 364.91 C555.46,368.93 595.88,388.01 604.25,392.17 ZM 322.99 546.64 C337.12,550.73 351.88,543.66 360.23,528.81 C361.40,526.72 362.67,525.00 363.03,525.00 C363.76,525.00 367.00,538.90 367.00,542.03 C367.00,543.91 367.74,544.00 383.00,544.00 L 399.00 544.00 L 399.00 404.08 L 392.25 402.10 C388.54,401.01 384.35,399.84 382.94,399.50 C380.63,398.94 365.61,402.22 350.25,406.63 L 345.00 408.14 L 345.00 453.71 L 355.15 452.73 L 354.83 473.16 C354.55,490.27 354.23,494.01 352.81,496.16 C350.37,499.89 347.28,500.37 344.39,497.48 L 342.00 495.09 L 342.00 366.91 L 344.45 364.45 C347.25,361.66 350.50,361.25 351.39,363.58 C351.73,364.45 352.00,372.03 352.00,380.42 C352.00,388.80 352.24,395.90 352.53,396.19 C352.82,396.48 359.37,395.26 367.09,393.48 L 381.13 390.23 L 388.32 392.10 C392.27,393.13 395.88,393.97 396.35,393.98 C396.82,393.99 397.00,383.09 396.74,369.75 C396.34,348.65 396.00,344.55 394.11,338.16 C388.24,318.29 378.81,309.03 364.43,309.01 C344.73,308.98 319.23,326.03 306.49,347.78 C301.00,357.14 298.42,363.80 295.93,375.00 C294.19,382.82 294.04,388.42 294.02,445.09 C294.00,502.75 294.12,507.16 295.93,514.24 C300.34,531.47 309.82,542.82 322.99,546.64 ZM 413.75 544.26 C418.56,544.44 428.91,544.68 436.75,544.79 L 451.00 545.00 L 451.00 505.00 C451.00,473.66 451.27,465.00 452.25,465.01 C452.94,465.02 455.18,465.30 457.24,465.64 L 460.98 466.26 L 461.24 505.38 L 461.50 544.50 L 484.25 544.77 L 507.00 545.04 L 507.00 361.29 L 499.25 357.72 C494.99,355.76 484.78,350.97 476.58,347.08 C468.37,343.18 461.51,340.00 461.33,340.00 C461.15,340.00 461.00,355.58 461.00,374.62 L 461.00 409.23 L 458.75 408.59 C457.51,408.24 455.26,407.68 453.75,407.35 L 451.00 406.75 L 450.96 370.62 L 450.93 334.50 L 429.20 324.25 C417.25,318.61 406.92,314.00 406.24,314.00 C405.26,314.00 405.00,338.17 405.00,428.96 L 405.00 543.92 ZM 157.47 544.77 C157.84,545.75 162.95,545.98 180.23,545.77 L 202.50 545.50 L 202.76 513.82 L 203.03 482.14 L 208.51 481.07 C211.53,480.48 216.59,479.52 219.75,478.93 C222.91,478.34 226.29,477.64 227.25,477.36 C228.85,476.91 229.00,475.01 229.00,455.93 C229.00,438.82 228.75,435.00 227.62,435.00 C226.49,435.00 219.95,436.88 204.71,441.60 C203.07,442.11 202.95,441.38 203.21,432.46 L 203.50 422.76 L 214.50 419.00 C220.55,416.93 227.75,414.38 230.50,413.34 L 235.50 411.44 L 235.77 390.22 C235.92,378.55 235.69,369.02 235.27,369.06 C234.85,369.09 217.18,377.35 196.00,387.42 L 157.50 405.73 L 157.24 474.61 C157.10,512.50 157.20,544.07 157.47,544.77 ZM 542.25 545.25 C547.34,545.44 557.66,545.68 565.18,545.79 L 578.86 546.00 L 579.49 540.75 C579.84,537.86 579.99,512.44 579.81,484.25 C579.57,444.39 579.77,433.00 580.72,433.00 C581.39,433.00 585.64,434.35 590.16,436.00 C594.68,437.65 598.75,439.00 599.19,439.00 C599.64,439.00 600.00,431.43 600.00,422.19 L 600.00 405.38 L 557.94 385.44 C534.81,374.47 515.23,365.35 514.42,365.17 C513.17,364.89 513.00,367.93 513.23,386.54 L 513.50 408.24 L 523.25 411.74 L 533.00 415.23 L 533.00 544.92 ZM 241.24 455.47 L 240.99 545.00 L 288.00 545.00 L 288.00 445.00 C288.00,361.80 287.77,345.00 286.65,345.00 C285.91,345.00 275.45,349.71 263.40,355.47 L 241.50 365.93 ZM 439.00 316.11 C443.12,318.11 446.80,319.57 447.18,319.36 C447.55,319.15 447.44,317.52 446.93,315.74 C445.70,311.46 445.76,302.41 447.05,297.77 C447.62,295.72 449.57,292.10 451.39,289.71 L 454.70 285.38 L 443.45 279.45 L 432.20 273.53 L 429.91 267.05 C428.66,263.48 427.49,259.28 427.31,257.72 C426.79,252.88 425.17,251.11 417.99,247.49 C410.22,243.58 408.43,243.30 405.91,245.58 C404.56,246.80 403.71,246.91 402.15,246.08 C396.69,243.16 390.18,247.05 388.14,254.47 C387.56,256.57 386.22,259.23 385.17,260.39 C383.27,262.48 382.27,268.11 381.45,281.40 C381.10,287.11 382.28,291.56 383.88,290.58 C384.31,290.31 387.54,283.53 391.06,275.51 C394.59,267.49 397.61,261.32 397.77,261.81 C397.93,262.29 395.98,268.50 393.44,275.60 C393.22,276.20 393.01,276.79 392.81,277.35 C388.08,290.53 387.13,293.18 387.98,294.04 C388.23,294.29 388.64,294.39 389.16,294.55 C390.25,294.90 391.25,295.03 391.38,294.84 C391.50,294.65 392.44,292.59 393.46,290.25 C395.47,285.62 397.63,284.28 395.87,288.75 C395.73,289.10 395.60,289.44 395.47,289.76 C394.08,293.27 393.37,295.07 393.88,296.40 C394.46,297.92 396.66,298.83 401.30,300.98 C405.81,303.08 410.96,305.10 412.75,305.48 C415.72,306.10 416.00,305.95 416.00,303.70 C416.00,299.80 417.17,295.00 418.12,295.00 C418.61,295.00 419.00,297.73 419.00,301.07 L 419.00 307.15 L 425.25 309.82 C428.69,311.29 434.88,314.12 439.00,316.11 ZM 310.71 320.37 C310.94,320.61 317.29,317.92 324.81,314.41 L 338.50 308.03 L 339.00 300.76 C339.53,293.13 340.34,293.64 341.57,302.35 C342.25,307.14 342.29,307.19 345.38,306.59 C347.10,306.25 352.21,304.20 356.75,302.04 L 364.99 298.10 L 362.42 290.96 C361.00,287.03 360.04,283.63 360.28,283.39 C360.52,283.15 362.13,286.12 363.86,289.99 C366.71,296.37 367.18,296.91 368.89,295.83 C370.60,294.77 370.66,294.30 369.50,291.08 C362.22,270.92 360.00,264.51 360.00,263.63 C360.00,261.76 361.61,264.34 363.97,270.00 C365.23,273.02 368.01,279.30 370.15,283.94 C373.77,291.77 374.15,292.24 375.43,290.41 C376.56,288.79 376.62,286.22 375.76,275.97 C374.89,265.57 374.36,263.09 372.56,261.00 C371.38,259.62 369.81,256.70 369.08,254.50 C366.59,246.94 361.47,244.07 355.85,247.08 C354.29,247.91 353.44,247.80 352.09,246.58 C351.13,245.71 349.59,245.00 348.67,245.00 C346.61,245.00 333.58,251.56 332.27,253.26 C331.75,253.94 330.61,257.47 329.74,261.10 C326.69,273.79 326.40,274.16 314.05,280.75 C304.30,285.96 303.12,286.86 304.54,288.03 C309.73,292.34 312.98,305.26 311.24,314.72 C310.71,317.60 310.47,320.14 310.71,320.37 ZM 157.67 604.33 C158.03,604.70 161.18,605.00 164.67,605.00 L 171.00 605.00 L 171.00 595.50 C171.00,583.22 172.83,583.01 173.21,595.25 L 173.50 604.50 L 180.25 604.80 L 187.00 605.09 L 187.00 554.91 L 180.25 555.20 L 173.50 555.50 L 173.21 563.78 C172.84,574.41 171.00,573.71 171.00,562.94 L 171.00 555.00 L 157.00 555.00 L 157.00 579.33 C157.00,592.72 157.30,603.97 157.67,604.33 ZM 268.19 602.97 C272.39,605.54 281.93,605.74 285.96,603.36 C291.68,599.98 292.50,597.06 292.50,580.00 C292.50,563.10 291.84,560.41 286.76,556.65 C283.03,553.89 272.81,553.82 268.24,556.52 C262.89,559.68 262.00,562.96 262.00,579.43 C262.00,596.10 262.97,599.79 268.19,602.97 ZM 373.31 603.11 C377.68,605.84 389.71,605.46 393.05,602.49 C397.41,598.59 398.00,595.29 398.00,574.53 L 398.00 555.00 L 384.00 555.00 L 384.00 573.50 C384.00,583.67 383.60,592.00 383.12,592.00 C381.48,592.00 381.03,587.56 381.01,571.25 L 381.00 555.00 L 366.83 555.00 L 367.17 575.75 C367.54,598.34 367.83,599.67 373.31,603.11 ZM 477.38 603.09 C479.57,604.43 482.37,604.99 486.80,605.00 C498.00,605.00 502.00,601.00 502.00,589.80 C501.99,582.08 500.06,578.53 493.33,573.85 L 488.50 570.50 L 495.25 570.20 L 502.00 569.91 L 502.00 566.40 C502.00,562.07 499.70,557.45 496.74,555.84 C493.35,554.00 482.11,554.31 478.21,556.36 C474.30,558.42 473.00,561.36 473.00,568.11 C473.00,574.53 474.90,578.09 480.46,582.08 C482.92,583.85 484.70,585.68 484.41,586.15 C484.12,586.62 481.21,587.00 477.94,587.00 L 472.00 587.00 L 472.00 590.85 C472.00,596.64 473.90,600.97 477.38,603.09 ZM 577.67 604.33 C578.03,604.70 583.21,605.00 589.17,605.00 L 600.00 605.00 L 600.00 592.00 L 590.00 592.00 L 590.00 588.50 C590.00,585.08 590.10,585.00 594.00,585.00 L 598.00 585.00 L 598.00 573.12 L 594.25 572.81 C590.99,572.54 590.46,572.14 590.18,569.75 C589.88,567.07 590.00,567.00 594.93,567.00 L 600.00 567.00 L 600.00 555.00 L 577.00 555.00 L 577.00 579.33 C577.00,592.72 577.30,603.97 577.67,604.33 ZM 429.00 171.11 C429.00,172.16 432.94,169.29 440.34,162.84 C443.18,160.37 444.38,158.40 444.96,155.25 C445.38,152.91 445.44,151.00 445.08,151.00 C444.10,151.00 429.00,169.88 429.00,171.11 ZM 489.25 296.70 C493.24,298.39 496.81,299.83 497.19,299.89 C498.66,300.13 499.18,297.67 498.54,293.43 C497.83,288.71 496.35,287.52 495.82,291.25 C495.47,293.72 492.89,294.06 485.75,292.56 C479.64,291.28 481.40,293.36 489.25,296.70 ZM 247.90 296.90 C250.15,299.15 254.27,299.52 261.50,298.10 C265.06,297.40 265.23,297.25 263.00,296.72 C261.62,296.40 258.76,295.89 256.63,295.61 C251.88,294.97 249.00,292.53 249.00,289.15 C249.00,285.79 247.25,287.51 246.41,291.68 C245.94,294.06 246.29,295.29 247.90,296.90 ZM 278.78 579.67 C278.58,588.71 278.14,592.46 277.25,592.75 C276.29,593.07 276.00,590.10 276.00,580.08 C276.00,569.01 276.23,567.00 277.53,567.00 C278.84,567.00 279.02,568.84 278.78,579.67 ZM 310.92 175.22 C315.92,178.70 318.00,179.69 318.00,178.56 C318.00,177.90 306.98,167.56 305.82,167.14 C305.28,166.94 304.98,167.83 305.17,169.11 C305.38,170.59 307.47,172.81 310.92,175.22 ZM 344.57 266.79 C345.86,270.21 346.56,273.00 346.14,273.00 C345.51,273.00 343.76,269.42 340.12,260.65 C339.92,260.16 340.31,259.94 340.99,260.16 C341.68,260.39 343.29,263.37 344.57,266.79 Z" fill="rgb(2,2,2)"/>
<path d="M 559.90 343.26 C559.66,347.55 558.99,350.62 557.92,353.00 C555.50,358.34 552.44,361.84 549.00,363.21 C546.48,364.20 547.07,364.76 579.99,380.56 C566.40,374.13 551.52,367.16 546.50,364.91 L 543.50 363.57 L 547.00 363.21 C551.44,362.75 554.64,359.83 557.62,353.50 C558.86,350.88 559.62,347.72 559.90,343.26 ZM 400.00 258.00 C400.00,258.55 399.55,259.00 399.00,259.00 C398.45,259.00 398.00,258.55 398.00,258.00 C398.00,257.45 398.45,257.00 399.00,257.00 C399.55,257.00 400.00,257.45 400.00,258.00 ZM 614.00 397.02 L 605.41 392.75 L 614.00 396.86 Z" fill="rgb(155,155,52)"/>
<path d="M 322.99 546.64 C309.82,542.82 300.34,531.47 295.93,514.24 C294.12,507.16 294.00,502.75 294.02,445.09 C294.04,388.42 294.19,382.82 295.93,375.00 C298.42,363.80 301.00,357.14 306.49,347.78 C319.23,326.03 344.73,308.98 364.43,309.01 C378.81,309.03 388.24,318.29 394.11,338.16 C396.00,344.55 396.34,348.65 396.74,369.75 C397.00,383.09 396.82,393.99 396.35,393.98 C395.88,393.97 392.27,393.13 388.32,392.10 L 381.13 390.23 L 367.09 393.48 C359.37,395.26 352.82,396.48 352.53,396.19 C352.24,395.90 352.00,388.80 352.00,380.42 C352.00,372.03 351.73,364.45 351.39,363.58 C350.50,361.25 347.25,361.66 344.45,364.45 L 342.00 366.91 L 342.00 495.09 L 344.39 497.48 C347.28,500.37 350.37,499.89 352.81,496.16 C354.23,494.01 354.55,490.27 354.83,473.16 L 355.15 452.73 L 345.00 453.71 L 345.00 408.14 L 350.25 406.63 C365.61,402.22 380.63,398.94 382.94,399.50 C384.35,399.84 388.54,401.01 392.25,402.10 L 399.00 404.08 L 399.00 544.00 L 383.00 544.00 C367.74,544.00 367.00,543.91 367.00,542.03 C367.00,538.90 363.76,525.00 363.03,525.00 C362.67,525.00 361.40,526.72 360.23,528.81 C351.88,543.66 337.12,550.73 322.99,546.64 ZM 413.75 544.26 L 405.00 543.92 L 405.00 428.96 C405.00,338.17 405.26,314.00 406.24,314.00 C406.92,314.00 417.25,318.61 429.20,324.25 L 450.93 334.50 L 450.96 370.62 L 451.00 406.75 L 453.75 407.35 C455.26,407.68 457.51,408.24 458.75,408.59 L 461.00 409.23 L 461.00 374.62 C461.00,355.58 461.15,340.00 461.33,340.00 C461.51,340.00 468.37,343.18 476.58,347.08 C484.78,350.97 494.99,355.76 499.25,357.72 L 507.00 361.29 L 507.00 545.04 L 484.25 544.77 L 461.50 544.50 L 461.24 505.38 L 460.98 466.26 L 457.24 465.64 C455.18,465.30 452.94,465.02 452.25,465.01 C451.27,465.00 451.00,473.66 451.00,505.00 L 451.00 545.00 L 436.75 544.79 C428.91,544.68 418.56,544.44 413.75,544.26 ZM 157.47 544.77 C157.20,544.07 157.10,512.50 157.24,474.61 L 157.50 405.73 L 196.00 387.42 C217.18,377.35 234.85,369.09 235.27,369.06 C235.69,369.02 235.92,378.55 235.77,390.22 L 235.50 411.44 L 230.50 413.34 C227.75,414.38 220.55,416.93 214.50,419.00 L 203.50 422.76 L 203.21 432.46 C202.95,441.38 203.07,442.11 204.71,441.60 C219.95,436.88 226.49,435.00 227.62,435.00 C228.75,435.00 229.00,438.82 229.00,455.93 C229.00,475.01 228.85,476.91 227.25,477.36 C226.29,477.64 222.91,478.34 219.75,478.93 C216.59,479.52 211.53,480.48 208.51,481.07 L 203.03 482.14 L 202.76 513.82 L 202.50 545.50 L 180.23 545.77 C162.95,545.98 157.84,545.75 157.47,544.77 ZM 542.25 545.25 L 533.00 544.92 L 533.00 415.23 L 523.25 411.74 L 513.50 408.24 L 513.23 386.54 C513.00,367.93 513.17,364.89 514.42,365.17 C515.23,365.35 534.81,374.47 557.94,385.44 L 600.00 405.38 L 600.00 422.19 C600.00,431.43 599.64,439.00 599.19,439.00 C598.75,439.00 594.68,437.65 590.16,436.00 C585.64,434.35 581.39,433.00 580.72,433.00 C579.77,433.00 579.57,444.39 579.81,484.25 C579.99,512.44 579.84,537.86 579.49,540.75 L 578.86 546.00 L 565.18 545.79 C557.66,545.68 547.34,545.44 542.25,545.25 ZM 241.24 455.47 L 241.50 365.93 L 263.40 355.47 C275.45,349.71 285.91,345.00 286.65,345.00 C287.77,345.00 288.00,361.80 288.00,445.00 L 288.00 545.00 L 240.99 545.00 ZM 439.00 316.11 C434.88,314.12 428.69,311.29 425.25,309.82 L 419.00 307.15 L 419.00 301.07 C419.00,297.73 418.61,295.00 418.12,295.00 C417.17,295.00 416.00,299.80 416.00,303.70 C416.00,305.95 415.72,306.10 412.75,305.48 C410.96,305.10 405.81,303.08 401.30,300.98 C396.66,298.83 394.46,297.92 393.88,296.40 C393.37,295.07 394.08,293.27 395.47,289.76 C395.60,289.44 395.73,289.10 395.87,288.75 C397.63,284.28 395.47,285.62 393.46,290.25 C392.44,292.59 391.50,294.65 391.38,294.84 C391.25,295.03 390.25,294.90 389.16,294.55 C388.64,294.39 388.23,294.29 387.98,294.04 C387.13,293.18 388.08,290.53 392.81,277.35 C393.01,276.79 393.22,276.20 393.44,275.60 C395.98,268.50 397.93,262.29 397.77,261.81 C397.61,261.32 394.59,267.49 391.06,275.51 C387.54,283.53 384.31,290.31 383.88,290.58 C382.28,291.56 381.10,287.11 381.45,281.40 C382.27,268.11 383.27,262.48 385.17,260.39 C386.22,259.23 387.56,256.57 388.14,254.47 C390.18,247.05 396.69,243.16 402.15,246.08 C403.71,246.91 404.56,246.80 405.91,245.58 C408.43,243.30 410.22,243.58 417.99,247.49 C425.17,251.11 426.79,252.88 427.31,257.72 C427.49,259.28 428.66,263.48 429.91,267.05 L 432.20 273.53 L 443.45 279.45 L 454.70 285.38 L 451.39 289.71 C449.57,292.10 447.62,295.72 447.05,297.77 C445.76,302.41 445.70,311.46 446.93,315.74 C447.44,317.52 447.55,319.15 447.18,319.36 C446.80,319.57 443.12,318.11 439.00,316.11 ZM 310.71 320.37 C310.47,320.14 310.71,317.60 311.24,314.72 C312.98,305.26 309.73,292.34 304.54,288.03 C303.12,286.86 304.30,285.96 314.05,280.75 C326.40,274.16 326.69,273.79 329.74,261.10 C330.61,257.47 331.75,253.94 332.27,253.26 C333.58,251.56 346.61,245.00 348.67,245.00 C349.59,245.00 351.13,245.71 352.09,246.58 C353.44,247.80 354.29,247.91 355.85,247.08 C361.47,244.07 366.59,246.94 369.08,254.50 C369.81,256.70 371.38,259.62 372.56,261.00 C374.36,263.09 374.89,265.57 375.76,275.97 C376.62,286.22 376.56,288.79 375.43,290.41 C374.15,292.24 373.77,291.77 370.15,283.94 C368.01,279.30 365.23,273.02 363.97,270.00 C361.61,264.34 360.00,261.76 360.00,263.63 C360.00,264.51 362.22,270.92 369.50,291.08 C370.66,294.30 370.60,294.77 368.89,295.83 C367.18,296.91 366.71,296.37 363.86,289.99 C362.13,286.12 360.52,283.15 360.28,283.39 C360.04,283.63 361.00,287.03 362.42,290.96 L 364.99 298.10 L 356.75 302.04 C352.21,304.20 347.10,306.25 345.38,306.59 C342.29,307.19 342.25,307.14 341.57,302.35 C340.34,293.64 339.53,293.13 339.00,300.76 L 338.50 308.03 L 324.81 314.41 C317.29,317.92 310.94,320.61 310.71,320.37 ZM 157.67 604.33 C157.30,603.97 157.00,592.72 157.00,579.33 L 157.00 555.00 L 171.00 555.00 L 171.00 562.94 C171.00,573.71 172.84,574.41 173.21,563.78 L 173.50 555.50 L 180.25 555.20 L 187.00 554.91 L 187.00 605.09 L 180.25 604.80 L 173.50 604.50 L 173.21 595.25 C172.83,583.01 171.00,583.22 171.00,595.50 L 171.00 605.00 L 164.67 605.00 C161.18,605.00 158.03,604.70 157.67,604.33 ZM 268.19 602.97 C262.97,599.79 262.00,596.10 262.00,579.43 C262.00,562.96 262.89,559.68 268.24,556.52 C272.81,553.82 283.03,553.89 286.76,556.65 C291.84,560.41 292.50,563.10 292.50,580.00 C292.50,597.06 291.68,599.98 285.96,603.36 C281.93,605.74 272.39,605.54 268.19,602.97 ZM 373.31 603.11 C367.83,599.67 367.54,598.34 367.17,575.75 L 366.83 555.00 L 381.00 555.00 L 381.01 571.25 C381.03,587.56 381.48,592.00 383.12,592.00 C383.60,592.00 384.00,583.67 384.00,573.50 L 384.00 555.00 L 398.00 555.00 L 398.00 574.53 C398.00,595.29 397.41,598.59 393.05,602.49 C389.71,605.46 377.68,605.84 373.31,603.11 ZM 477.38 603.09 C473.90,600.97 472.00,596.64 472.00,590.85 L 472.00 587.00 L 477.94 587.00 C481.21,587.00 484.12,586.62 484.41,586.15 C484.70,585.68 482.92,583.85 480.46,582.08 C474.90,578.09 473.00,574.53 473.00,568.11 C473.00,561.36 474.30,558.42 478.21,556.36 C482.11,554.31 493.35,554.00 496.74,555.84 C499.70,557.45 502.00,562.07 502.00,566.40 L 502.00 569.91 L 495.25 570.20 L 488.50 570.50 L 493.33 573.85 C500.06,578.53 501.99,582.08 502.00,589.80 C502.00,601.00 498.00,605.00 486.80,605.00 C482.37,604.99 479.57,604.43 477.38,603.09 ZM 577.67 604.33 C577.30,603.97 577.00,592.72 577.00,579.33 L 577.00 555.00 L 600.00 555.00 L 600.00 567.00 L 594.93 567.00 C590.00,567.00 589.88,567.07 590.18,569.75 C590.46,572.14 590.99,572.54 594.25,572.81 L 598.00 573.12 L 598.00 585.00 L 594.00 585.00 C590.10,585.00 590.00,585.08 590.00,588.50 L 590.00 592.00 L 600.00 592.00 L 600.00 605.00 L 589.17 605.00 C583.21,605.00 578.03,604.70 577.67,604.33 ZM 429.00 171.11 C429.00,169.88 444.10,151.00 445.08,151.00 C445.44,151.00 445.38,152.91 444.96,155.25 C444.38,158.40 443.18,160.37 440.34,162.84 C432.94,169.29 429.00,172.16 429.00,171.11 ZM 489.25 296.70 C481.40,293.36 479.64,291.28 485.75,292.56 C492.89,294.06 495.47,293.72 495.82,291.25 C496.35,287.52 497.83,288.71 498.54,293.43 C499.18,297.67 498.66,300.13 497.19,299.89 C496.81,299.83 493.24,298.39 489.25,296.70 ZM 247.90 296.90 C246.29,295.29 245.94,294.06 246.41,291.68 C247.25,287.51 249.00,285.79 249.00,289.15 C249.00,292.53 251.88,294.97 256.63,295.61 C258.76,295.89 261.62,296.40 263.00,296.72 C265.23,297.25 265.06,297.40 261.50,298.10 C254.27,299.52 250.15,299.15 247.90,296.90 ZM 278.78 579.67 C279.02,568.84 278.84,567.00 277.53,567.00 C276.23,567.00 276.00,569.01 276.00,580.08 C276.00,590.10 276.29,593.07 277.25,592.75 C278.14,592.46 278.58,588.71 278.78,579.67 ZM 310.92 175.22 C307.47,172.81 305.38,170.59 305.17,169.11 C304.98,167.83 305.28,166.94 305.82,167.14 C306.98,167.56 318.00,177.90 318.00,178.56 C318.00,179.69 315.92,178.70 310.92,175.22 ZM 344.57 266.79 C343.29,263.37 341.68,260.39 340.99,260.16 C340.31,259.94 339.92,260.16 340.12,260.65 C343.76,269.42 345.51,273.00 346.14,273.00 C346.56,273.00 345.86,270.21 344.57,266.79 ZM 400.00 258.00 C400.00,257.45 399.55,257.00 399.00,257.00 C398.45,257.00 398.00,257.45 398.00,258.00 C398.00,258.55 398.45,259.00 399.00,259.00 C399.55,259.00 400.00,258.55 400.00,258.00 Z" fill="rgb(253,253,8)"/>
<path d="M 0.00 356.00 L 0.00 0.00 L 374.00 0.00 L 748.00 0.00 L 748.00 356.00 L 748.00 712.00 L 374.00 712.00 L 0.00 712.00 L 0.00 356.00 ZM 614.00 507.43 L 614.00 396.86 L 592.25 386.44 C547.24,364.88 546.20,364.32 549.00,363.21 C552.44,361.84 555.50,358.34 557.92,353.00 C561.14,345.89 560.69,332.57 556.07,299.04 C553.92,283.34 551.67,265.65 551.09,259.73 C549.26,241.11 541.05,221.83 532.31,215.64 C528.05,212.62 484.38,192.08 467.17,185.00 C462.58,183.11 457.30,180.20 455.43,178.53 L 452.03 175.50 L 450.66 160.50 C449.37,146.46 449.39,145.37 451.04,143.50 C452.95,141.33 457.00,127.95 457.00,123.80 C457.00,122.23 456.12,120.65 454.73,119.74 C452.78,118.46 452.29,116.82 451.23,107.88 C449.67,94.84 448.76,91.59 445.03,85.70 C441.67,80.40 432.20,73.67 425.62,71.90 C418.80,70.06 407.36,71.18 400.40,74.36 C393.50,77.50 385.35,85.19 382.01,91.70 C379.44,96.70 377.08,109.05 377.03,117.75 C377.02,121.19 376.58,124.00 376.07,124.00 C372.37,124.00 377.01,142.46 381.43,145.36 C383.09,146.45 383.96,148.26 384.46,151.69 C385.30,157.41 388.12,164.15 391.54,168.64 C393.25,170.89 394.21,173.74 394.65,177.88 L 395.27 183.87 L 390.20 190.25 C387.41,193.75 382.40,198.60 379.07,201.03 C375.73,203.46 373.00,205.69 373.00,205.98 C373.00,206.26 374.61,207.78 376.57,209.35 C378.53,210.91 379.95,212.38 379.73,212.60 C379.50,212.83 374.64,210.45 368.92,207.31 C363.20,204.17 356.94,201.35 355.01,201.03 C351.63,200.46 351.51,200.30 351.76,196.47 C352.57,184.18 353.13,182.04 356.57,177.92 C358.99,175.02 360.00,172.82 360.00,170.43 C360.00,167.74 360.57,166.76 362.82,165.59 C364.97,164.48 366.38,162.22 368.82,156.01 C372.50,146.59 372.68,144.68 370.14,142.14 C368.72,140.72 368.16,138.30 367.80,132.13 C367.40,125.19 366.76,122.86 363.50,116.43 C356.91,103.46 347.14,96.82 333.66,96.16 C326.29,95.80 325.39,96.00 318.45,99.43 C307.25,104.96 301.36,113.22 298.96,126.74 C297.99,132.23 297.15,134.33 295.48,135.42 C292.12,137.62 291.69,142.25 294.09,150.39 C295.53,155.26 297.12,158.37 299.17,160.26 C301.92,162.81 302.10,163.40 301.60,168.26 C301.30,171.14 300.78,177.03 300.44,181.34 C299.83,188.98 299.73,189.21 296.66,190.47 C294.92,191.17 291.38,192.06 288.79,192.43 C284.95,192.99 260.88,203.06 245.00,210.76 C243.07,211.70 238.33,215.62 234.45,219.48 C226.00,227.89 222.07,235.08 211.98,260.58 L 204.89 278.50 L 201.94 300.50 C200.32,312.60 198.72,327.90 198.40,334.50 L 197.80 346.50 L 201.15 353.00 C203.58,357.71 205.39,359.91 207.73,361.00 C209.50,361.83 210.97,362.73 210.98,363.01 C210.99,363.29 195.93,371.05 177.50,380.26 L 144.00 397.00 L 144.00 507.50 L 144.00 618.00 L 379.00 618.00 L 614.00 618.00 L 614.00 507.43 Z" fill="rgb(254,254,254)"/>
</g>
</svg>